<?xml version="1.0" standalone="no"?>
<!DOCTYPE svg PUBLIC "-//W3C//DTD SVG 20010904//EN"
 "http://www.w3.org/TR/2001/REC-SVG-20010904/DTD/svg10.dtd">
<svg version="1.0" xmlns="http://www.w3.org/2000/svg"
 width="256.000000pt" height="256.000000pt" viewBox="0 0 256.000000 256.000000"
 preserveAspectRatio="xMidYMid meet">
<metadata>
Created by potrace 1.11, written by Peter Selinger 2001-2013
</metadata>
<g transform="translate(0.000000,256.000000) scale(0.100000,-0.100000)"
fill="#000000" stroke="none">
<path d="M0 1280 l0 -1280 1280 0 1280 0 0 1280 0 1280 -1280 0 -1280 0 0
-1280z m876 805 c49 -27 105 -59 124 -71 22 -16 38 -20 44 -14 7 7 6 14 -1 21
-6 6 -9 19 -6 28 3 9 1 12 -4 6 -10 -12 -49 -13 -82 -1 -18 6 -20 10 -10 17 7
4 19 3 26 -2 8 -7 19 -7 34 1 17 10 20 9 14 -1 -6 -9 -3 -11 8 -6 10 4 20 0
26 -11 6 -9 11 -14 11 -9 0 4 14 0 30 -8 18 -9 28 -20 24 -27 -5 -7 -2 -9 7
-6 9 3 42 -10 75 -29 53 -32 55 -36 7 -16 -12 5 -14 3 -8 -7 6 -10 4 -12 -11
-6 -10 5 -26 9 -34 9 -18 0 -41 22 -33 31 4 3 1 6 -4 6 -6 0 -13 -6 -16 -12
-4 -10 -7 -10 -18 0 -11 10 -10 12 3 12 9 0 18 7 22 15 6 18 1 19 -25 5 -26
-14 -24 -37 4 -46 12 -4 22 -5 23 -3 0 2 15 -8 33 -24 18 -15 43 -30 57 -33
13 -3 22 -10 19 -14 -3 -5 8 -11 25 -15 16 -4 30 -11 30 -16 0 -5 5 -9 11 -9
5 0 7 5 4 10 -8 12 87 11 107 -1 7 -5 -8 -6 -34 -4 -51 5 -71 -8 -39 -24 30
-16 40 -12 11 4 -14 8 -20 14 -15 14 6 1 17 -3 25 -9 9 -6 17 -5 22 3 5 9 12
7 25 -6 17 -17 17 -18 1 -12 -10 4 -24 0 -33 -9 -12 -11 -28 -14 -65 -9 -28 3
-50 3 -50 0 0 -3 26 -20 58 -39 59 -34 127 -47 279 -51 33 -1 59 -5 56 -9 -2
-5 5 -8 16 -8 12 0 21 -6 21 -12 0 -9 3 -9 9 1 6 10 23 12 61 9 52 -5 96 -27
47 -25 -14 1 -23 5 -20 10 6 11 -25 9 -48 -4 -11 -5 -17 -14 -14 -20 4 -6 -12
-7 -42 -4 l-48 6 35 -23 c56 -36 83 -49 88 -43 3 3 -9 11 -26 17 -18 7 -32 16
-32 20 0 14 23 9 43 -9 15 -13 21 -15 24 -5 3 6 16 12 30 12 21 0 23 -2 13
-15 -7 -8 -16 -13 -20 -10 -4 3 -10 -2 -14 -10 -3 -8 0 -17 6 -21 7 -4 8 -3 4
5 -6 8 0 10 21 6 23 -4 24 -4 8 4 -17 8 -18 10 -2 10 9 1 17 6 17 11 0 9 47
-15 60 -30 3 -4 13 -9 23 -13 29 -11 20 -30 -10 -23 -25 5 -26 5 -9 -5 15 -9
24 -9 38 0 21 13 48 1 89 -40 10 -10 27 -19 37 -18 14 0 14 2 -3 8 -13 6 -1 8
37 7 31 0 54 -5 51 -9 -3 -5 -11 -6 -19 -3 -7 3 -16 1 -19 -4 -4 -6 -16 -10
-28 -11 -21 0 -21 -1 -2 -8 11 -5 23 -7 27 -4 11 6 74 -39 98 -70 12 -15 24
-43 27 -62 l6 -35 -67 0 c-47 0 -65 -3 -60 -11 4 -8 0 -9 -15 -4 -12 4 -21 2
-21 -4 0 -6 7 -11 15 -11 9 0 12 -6 8 -16 -3 -9 0 -20 8 -25 11 -7 11 -9 -3
-9 -10 0 -18 -5 -18 -11 0 -5 4 -7 10 -4 5 3 18 1 27 -5 16 -11 16 -11 1 -6
-10 3 -20 1 -23 -4 -4 -6 0 -10 7 -11 7 0 4 -4 -7 -9 -17 -7 -15 -9 11 -9 18
-1 34 -7 37 -13 3 -10 -10 -12 -52 -10 -45 3 -65 -1 -96 -19 -21 -13 -33 -25
-27 -27 7 -2 3 -11 -10 -22 -13 -10 -27 -16 -31 -13 -5 3 0 12 10 20 10 8 -13
-2 -52 -22 -38 -20 -74 -41 -80 -47 -6 -6 -1 -6 12 1 12 6 24 7 27 2 3 -5 -8
-14 -26 -20 -39 -14 -41 -14 -32 1 4 7 3 8 -5 4 -9 -6 -9 -11 0 -22 9 -11 7
-14 -10 -14 -12 0 -19 4 -16 10 9 14 -7 12 -29 -5 -17 -13 -15 -14 15 -13 47
0 70 8 63 20 -5 7 1 9 17 5 13 -3 31 -2 39 3 13 9 13 10 0 10 -13 0 -13 1 0
10 11 7 11 10 2 10 -7 0 -10 5 -7 10 4 7 12 7 25 0 13 -7 21 -5 31 6 11 13 9
15 -17 10 -16 -4 -22 -3 -14 0 8 4 18 12 22 17 4 7 12 6 22 -2 21 -17 3 -51
-26 -51 -12 0 -18 -3 -15 -7 11 -10 -44 -42 -61 -35 -10 3 -13 1 -8 -6 5 -8 1
-10 -10 -5 -11 4 -15 2 -11 -4 6 -10 -77 -8 -94 2 -4 3 -11 0 -15 -6 -4 -8 -3
-9 4 -5 7 4 12 2 12 -3 0 -6 -10 -11 -22 -11 -46 0 -66 -4 -62 -12 3 -4 32 -8
65 -8 32 0 59 -3 59 -8 0 -4 19 -6 43 -4 27 2 37 0 29 -6 -7 -5 -25 -7 -40 -5
-22 3 -23 2 -8 -5 18 -8 18 -9 3 -15 -9 -3 -17 -3 -17 2 0 4 -12 13 -26 20
-23 10 -32 8 -75 -19 -58 -35 -69 -37 -69 -10 0 17 -7 20 -50 20 -46 0 -50 -2
-50 -24 0 -18 -11 -31 -42 -49 -24 -14 -52 -27 -63 -29 -16 -4 -13 -7 15 -15
19 -6 27 -12 18 -12 -9 -1 -24 -4 -34 -8 -12 -4 -15 -3 -10 5 9 15 1 15 -25 1
-11 -5 -16 -15 -13 -21 5 -8 1 -9 -10 -5 -19 7 -80 -26 -68 -37 4 -4 0 -7 -8
-5 -18 4 -56 -16 -88 -45 -13 -11 -25 -20 -28 -18 -10 6 -24 1 -40 -15 -9 -10
-23 -18 -30 -19 -7 -1 -26 -11 -41 -22 -16 -11 -73 -43 -128 -72 -95 -49 -103
-52 -162 -48 -51 3 -69 9 -100 34 -56 45 -71 84 -75 194 -2 67 -7 95 -15 96
-7 1 -37 3 -65 4 l-53 3 65 6 65 6 0 45 0 45 45 3 c25 2 49 7 54 12 12 12 -37
24 -69 17 -14 -2 -28 0 -31 4 -3 5 -33 10 -67 11 l-62 1 65 6 65 6 0 215 0
215 50 5 c62 6 61 23 -2 30 l-48 5 0 120 c-1 170 -2 165 55 165 42 0 47 2 43
18 -3 14 -15 19 -46 20 -22 1 -46 7 -51 12 -6 6 -37 11 -71 12 l-60 1 65 6 65
6 1 63 1 62 -64 0 c-35 0 -63 4 -63 10 0 6 28 10 65 10 l65 0 0 55 c0 64 17
110 51 142 78 71 161 70 295 -2z m-16 35 c13 -9 13 -10 0 -10 -8 0 -22 5 -30
10 -13 9 -13 10 0 10 8 0 22 -5 30 -10z m35 0 c-3 -5 1 -10 10 -10 9 0 13 5
10 10 -7 11 8 14 19 3 3 -4 -4 -13 -16 -20 -14 -8 -17 -12 -8 -12 8 -1 21 3
29 8 18 11 43 3 34 -12 -4 -7 0 -8 13 -3 15 6 16 5 7 -5 -10 -10 -15 -9 -28 1
-11 9 -18 10 -29 1 -10 -8 -20 -8 -42 4 -16 8 -24 15 -17 15 7 0 10 7 7 15 -4
8 -1 15 6 15 6 0 8 -4 5 -10z m129 -96 c9 -8 16 -18 16 -20 0 -7 -38 15 -45
26 -10 16 12 12 29 -6z m236 -103 c23 -10 23 -11 3 -7 -13 2 -23 -1 -23 -6 0
-7 14 -8 35 -5 21 3 33 2 30 -4 -8 -12 -75 -12 -75 1 0 6 -6 10 -12 10 -7 1
-26 7 -43 14 l-30 14 45 -3 c25 -1 56 -8 70 -14z m186 -98 c-6 -6 -36 9 -36
18 0 5 9 4 20 -3 10 -7 18 -14 16 -15z m-41 -41 c19 -12 19 -13 -4 -6 -16 4
-21 3 -17 -5 4 -6 19 -11 34 -11 15 0 33 -4 40 -9 25 -15 -82 -12 -113 5 -84
44 -84 43 -19 40 32 -1 68 -8 79 -14z m335 -112 c-8 -5 -19 -10 -25 -10 -5 0
-3 5 5 10 8 5 20 10 25 10 6 0 3 -5 -5 -10z m12 -32 c-9 -9 -15 -9 -24 0 -9 9
-7 12 12 12 19 0 21 -3 12 -12z m405 -411 c30 -4 34 -10 17 -25 -12 -11 -15
-10 -20 2 -3 9 -16 16 -28 16 -11 0 -28 5 -36 10 -11 7 -7 9 15 5 17 -3 40 -7
52 -8z m-11 -44 c-7 -7 -26 7 -26 19 0 6 6 6 15 -2 9 -7 13 -15 11 -17z m54
13 c0 -3 -4 -8 -10 -11 -5 -3 -10 -1 -10 4 0 6 5 11 10 11 6 0 10 -2 10 -4z
m-28 -33 c-6 -3 -10 -8 -8 -12 3 -4 -4 -8 -15 -8 -11 -1 -17 2 -14 7 3 5 -3
10 -12 13 -10 2 0 4 22 4 22 0 34 -2 27 -4z m-80 -59 c-9 -7 -18 -8 -20 -3 -2
5 -8 9 -14 9 -6 0 -8 -7 -5 -14 4 -11 1 -13 -10 -9 -12 5 -14 3 -8 -7 6 -9 4
-11 -6 -5 -54 31 -45 46 27 44 46 -2 51 -4 36 -15z m-112 -14 c0 -5 -5 -10
-11 -10 -5 0 -7 5 -4 10 3 6 8 10 11 10 2 0 4 -4 4 -10z m29 -14 c9 -11 3 -19
-33 -40 -42 -24 -79 -37 -46 -16 13 8 13 10 1 10 -12 0 -12 3 -3 12 10 10 15
10 23 -2 8 -13 9 -12 7 2 -2 13 23 44 38 48 1 0 7 -6 13 -14z m-292 -162 c-3
-3 -12 -4 -19 -1 -8 3 -5 6 6 6 11 1 17 -2 13 -5z m-12 -60 c9 -9 13 -19 10
-23 -4 -3 -13 2 -20 12 -7 10 -16 14 -19 8 -4 -5 -2 -13 4 -16 8 -5 7 -11 -1
-21 -7 -9 -29 -14 -63 -13 -28 1 -41 4 -28 6 12 2 20 8 17 13 -7 12 32 23 47
14 7 -4 10 -4 6 0 -7 8 11 35 24 36 4 0 14 -7 23 -16z m-208 -77 c4 -5 -11 -7
-34 -6 -23 2 -40 6 -38 10 6 9 61 6 72 -4z m-62 -47 c-3 -6 -19 -17 -34 -24
-24 -13 -28 -13 -28 0 0 8 6 13 13 10 7 -3 18 2 24 10 14 16 35 19 25 4z m-82
-20 c6 0 2 -7 -9 -16 -19 -15 -19 -16 1 -10 20 6 20 6 0 -9 -12 -10 -21 -12
-23 -5 -6 17 -23 11 -20 -7 2 -12 -3 -18 -15 -18 -10 0 -21 -5 -25 -10 -4 -6
-32 -11 -62 -11 -49 -1 -52 0 -27 9 15 6 27 15 27 20 0 4 4 6 9 3 13 -8 42 4
35 15 -3 5 2 6 12 2 14 -5 13 -8 -7 -20 -18 -11 -19 -13 -4 -7 11 3 26 7 33 7
8 0 8 5 -4 18 -15 17 -4 36 15 25 5 -4 17 -3 26 0 13 6 14 9 3 16 -9 7 -8 8 5
4 10 -3 24 -6 30 -6z m-113 -95 c0 -9 -129 -78 -143 -77 -9 0 -15 -3 -12 -8 4
-6 -2 -7 -11 -3 -12 4 -15 3 -10 -5 5 -9 0 -9 -20 -2 -21 8 -32 7 -52 -6 -23
-15 -24 -17 -8 -26 16 -9 15 -12 -11 -27 -38 -23 -65 -33 -58 -21 3 6 2 10 -4
10 -5 0 -15 -8 -20 -17 -10 -17 -10 -17 -11 0 0 9 5 17 12 17 6 0 9 2 6 5 -3
3 -22 -4 -42 -16 -20 -11 -36 -17 -36 -12 0 4 37 28 83 52 45 24 89 49 97 56
31 25 44 29 37 13 -4 -11 -1 -15 11 -13 9 2 22 4 27 5 6 1 1 6 -10 11 -17 8
-15 8 8 4 15 -3 27 -1 27 5 0 5 5 10 11 10 5 0 7 -4 4 -10 -3 -5 -2 -10 4 -10
19 0 20 16 1 28 -12 7 -21 8 -25 2 -3 -6 -12 -10 -18 -10 -7 0 -4 7 6 15 11 7
25 11 33 8 8 -3 14 0 14 7 0 7 6 10 13 7 8 -3 19 -2 26 2 10 7 71 11 71 6z
m-196 -117 c-3 -5 -10 -6 -15 -3 -5 4 -9 2 -9 -4 0 -6 -7 -8 -15 -5 -26 10
-16 24 14 22 16 -1 27 -6 25 -10z"/>
<path d="M1050 2025 c6 -8 18 -11 26 -8 18 7 13 12 -16 18 -18 3 -20 2 -10
-10z"/>
<path d="M1142 1984 c10 -10 20 -15 24 -12 3 4 -5 12 -18 18 -22 12 -22 12 -6
-6z"/>
<path d="M910 1501 c0 -94 3 -113 16 -118 28 -10 69 10 70 35 1 19 1 19 -3 2
-3 -15 -12 -20 -39 -20 l-34 0 2 103 c1 81 3 93 8 57 l8 -45 -2 44 c0 26 -6
46 -13 49 -10 3 -13 -23 -13 -107z"/>
<path d="M1820 1590 c8 -5 20 -10 25 -10 6 0 3 5 -5 10 -8 5 -19 10 -25 10 -5
0 -3 -5 5 -10z"/>
<path d="M962 1558 c1 -18 3 -28 5 -21 2 7 11 9 19 6 13 -5 13 -7 2 -14 -8 -6
-1 -7 18 -3 31 6 32 5 36 -36 3 -39 -10 -68 -25 -53 -4 3 -7 1 -7 -5 0 -7 8
-12 18 -13 14 0 14 -2 -3 -9 -11 -5 -14 -9 -7 -9 6 -1 21 -10 31 -20 20 -20
20 -20 -9 -16 -17 2 -30 -2 -33 -10 -4 -9 -19 -11 -51 -8 -42 5 -46 4 -46 -16
0 -26 19 -47 40 -45 8 1 24 2 35 3 19 2 19 3 -4 22 -14 11 -31 17 -42 14 -11
-4 -19 -2 -19 5 0 8 14 9 45 4 30 -4 45 -3 45 5 0 15 27 14 36 -1 5 -7 3 -8
-7 -3 -11 7 -11 5 1 -10 14 -17 13 -18 -14 -11 l-30 7 22 -18 c20 -16 22 -29
23 -142 l3 -125 -28 -7 c-15 -4 -34 -13 -42 -20 -16 -13 -20 -44 -4 -34 6 4 7
11 4 17 -5 7 -1 9 9 5 10 -4 16 -2 14 6 -1 7 11 12 28 13 17 1 74 28 128 59
53 32 112 59 130 61 17 1 46 4 62 5 24 2 22 3 -13 8 l-43 6 86 50 87 50 -51 3
c-72 4 -54 22 22 22 76 1 78 -2 -111 107 l-137 78 39 5 c35 4 38 6 23 19 -10
8 -38 13 -69 12 -36 0 -62 6 -87 20 -20 12 -49 22 -66 23 -17 1 -29 6 -28 13
2 8 -4 10 -14 6 -10 -4 -14 -2 -9 5 3 6 2 13 -3 16 -5 4 -9 -8 -9 -26z m175
-194 c-3 -3 -12 -4 -19 -1 -8 3 -5 6 6 6 11 1 17 -2 13 -5z m-173 -50 c9 -3
14 -10 11 -15 -7 -10 -35 0 -35 12 0 11 3 11 24 3z"/>
<path d="M1795 1571 c-17 -7 -13 -12 32 -35 51 -25 152 -38 139 -17 -3 5 -16
7 -29 4 -18 -4 -19 -3 -7 6 9 7 10 11 3 11 -6 0 -15 -4 -18 -10 -11 -18 -43
-11 -72 15 -22 20 -24 24 -8 19 16 -5 17 -4 5 5 -17 12 -18 12 -45 2z"/>
<path d="M1982 1447 c39 -23 64 -52 85 -97 6 -14 12 -19 12 -12 1 6 9 12 19
12 12 1 9 5 -10 16 -16 8 -28 19 -28 24 0 14 17 12 24 -2 3 -7 3 -3 0 10 -4
16 -1 22 10 22 9 0 16 -4 16 -8 0 -4 13 -13 29 -19 23 -8 28 -8 25 1 -3 7 -20
18 -40 25 -19 7 -32 17 -29 22 4 5 2 9 -2 9 -5 0 -15 -11 -23 -24 l-15 -24
-34 28 c-28 24 -30 28 -11 23 14 -4 21 -2 17 3 -3 6 -23 11 -44 12 l-38 2 37
-23z"/>
<path d="M2046 1435 c4 -8 10 -12 15 -9 11 6 2 24 -11 24 -5 0 -7 -7 -4 -15z"/>
<path d="M938 1433 c7 -3 16 -2 19 1 4 3 -2 6 -13 5 -11 0 -14 -3 -6 -6z"/>
<path d="M938 1413 c7 -3 16 -2 19 1 4 3 -2 6 -13 5 -11 0 -14 -3 -6 -6z"/>
<path d="M1008 1383 c7 -3 16 -2 19 1 4 3 -2 6 -13 5 -11 0 -14 -3 -6 -6z"/>
<path d="M2148 1362 c13 -4 23 -10 23 -14 -3 -27 1 -37 14 -42 9 -3 15 0 15
10 0 9 -5 12 -11 8 -9 -5 -10 1 -5 20 6 24 4 26 -26 25 -28 -1 -30 -2 -10 -7z"/>
<path d="M2118 1333 c7 -3 16 -2 19 1 4 3 -2 6 -13 5 -11 0 -14 -3 -6 -6z"/>
<path d="M2080 1310 c0 -5 7 -10 16 -10 8 0 12 5 9 10 -3 6 -10 10 -16 10 -5
0 -9 -4 -9 -10z"/>
<path d="M2138 1313 c7 -3 16 -2 19 1 4 3 -2 6 -13 5 -11 0 -14 -3 -6 -6z"/>
<path d="M912 1122 c-2 -135 1 -173 11 -170 6 3 12 22 13 44 l1 39 -6 -40 c-3
-22 -8 36 -11 130 l-6 170 -2 -173z"/>
<path d="M1955 1270 c-4 -6 12 -10 39 -10 25 0 46 5 46 10 0 6 -18 10 -39 10
-22 0 -43 -4 -46 -10z"/>
<path d="M1263 753 c15 -2 37 -2 50 0 12 2 0 4 -28 4 -27 0 -38 -2 -22 -4z"/>
<path d="M1340 1780 c0 -6 4 -9 9 -6 5 4 12 1 14 -4 3 -6 4 -5 3 2 -3 15 -26
23 -26 8z"/>
<path d="M1980 1060 c-9 -6 -10 -10 -3 -10 6 0 15 5 18 10 8 12 4 12 -15 0z"/>
<path d="M1633 813 c9 -2 23 -2 30 0 6 3 -1 5 -18 5 -16 0 -22 -2 -12 -5z"/>
<path d="M1145 580 c-3 -5 -2 -10 4 -10 5 0 13 5 16 10 3 6 2 10 -4 10 -5 0
-13 -4 -16 -10z"/>
<path d="M935 480 c3 -5 11 -10 16 -10 6 0 7 5 4 10 -3 6 -11 10 -16 10 -6 0
-7 -4 -4 -10z"/>
<path d="M900 466 c0 -2 9 -6 20 -9 11 -3 18 -1 14 4 -5 9 -34 13 -34 5z"/>
</g>
</svg>
