<?xml version="1.0" standalone="no"?>
<!DOCTYPE svg PUBLIC "-//W3C//DTD SVG 20010904//EN"
 "http://www.w3.org/TR/2001/REC-SVG-20010904/DTD/svg10.dtd">
<svg version="1.0" xmlns="http://www.w3.org/2000/svg"
 width="200.000000pt" height="200.000000pt" viewBox="0 0 200.000000 200.000000"
 preserveAspectRatio="xMidYMid meet">
<metadata>
Created by potrace 1.11, written by Peter Selinger 2001-2013
</metadata>
<g transform="translate(0.000000,200.000000) scale(0.100000,-0.100000)"
fill="#000000" stroke="none">
<path d="M1 1870 c1 -120 2 -130 20 -130 10 0 19 5 19 11 0 5 5 7 10 4 18 -11
10 -24 -17 -27 -16 -2 -26 -7 -23 -13 3 -5 16 -8 29 -6 14 2 21 -1 17 -8 -5
-7 3 -7 24 0 16 6 27 15 24 21 -4 7 -9 6 -14 -2 -5 -8 -9 -5 -12 8 -5 17 2 21
61 31 56 9 68 8 77 -4 6 -8 25 -15 42 -15 34 0 51 -15 27 -24 -22 -8 -7 -36
18 -33 19 2 22 -3 21 -35 0 -26 4 -38 13 -38 7 0 16 -14 20 -31 3 -17 11 -28
17 -26 7 3 13 -4 13 -15 1 -10 12 -28 25 -38 21 -18 21 -19 3 -14 l-20 6 20
-13 c11 -6 21 -12 21 -13 1 -1 5 -12 8 -26 6 -19 5 -21 -3 -10 -7 10 -11 11
-11 3 0 -21 -20 -15 -29 9 -8 21 -9 20 -26 -15 -11 -23 -24 -37 -36 -37 -11 0
-19 4 -19 8 0 4 -12 9 -27 10 -15 1 -32 7 -37 12 -16 16 -40 12 -63 -10 -19
-17 -25 -18 -47 -6 -15 7 -43 11 -62 9 -27 -3 -42 1 -55 16 -23 24 -24 32 -4
25 12 -5 15 2 15 30 0 20 3 35 8 35 4 -1 18 -1 32 0 l24 1 -22 16 c-13 9 -19
20 -15 27 4 7 -2 5 -12 -3 -10 -8 -16 -10 -12 -4 10 17 -12 71 -28 71 -8 0
-15 -4 -15 -9 0 -4 5 -8 10 -8 7 0 7 -6 0 -19 -6 -12 -10 -114 -10 -261 0
-203 2 -241 14 -237 10 4 15 -4 18 -27 3 -25 0 -33 -12 -32 -13 1 -15 -59 -18
-516 l-2 -518 186 0 186 0 -7 58 c-18 141 -27 247 -21 241 6 -6 25 -129 32
-204 9 -103 -4 -95 154 -95 l140 0 0 25 c0 13 -6 44 -14 67 -15 48 -40 198
-34 204 3 2 10 -27 18 -64 7 -37 17 -76 23 -87 6 -11 10 -24 9 -29 -2 -5 3
-33 9 -62 l12 -54 144 0 144 0 -7 23 c-27 84 -31 92 -60 98 l-29 6 26 4 26 4
-19 59 c-10 32 -18 66 -16 75 2 9 14 -17 27 -57 12 -40 28 -75 34 -78 7 -2 13
-21 14 -42 0 -20 6 -49 12 -64 l11 -28 140 0 c77 0 140 4 140 9 0 25 -44 103
-63 111 -17 7 -18 9 -4 9 22 1 22 0 -7 63 -66 149 -86 196 -86 205 0 6 -6 15
-13 21 -7 6 -14 23 -15 38 -1 15 -8 37 -15 48 -14 22 -38 86 -32 86 8 0 42
-68 53 -107 7 -24 17 -43 23 -43 6 0 7 -4 4 -10 -3 -5 4 -29 17 -52 12 -24 23
-47 24 -53 1 -9 21 -56 65 -153 10 -23 22 -42 26 -42 5 0 9 -12 9 -28 1 -15 9
-44 18 -65 l16 -37 140 0 c98 0 140 3 140 11 0 7 -23 55 -52 108 -28 53 -76
144 -106 204 -30 59 -59 107 -65 107 -6 0 -8 3 -4 6 7 7 -17 59 -38 84 -7 8
-16 26 -20 40 -5 20 -2 19 17 -10 13 -19 32 -52 43 -72 11 -21 25 -38 32 -38
7 0 10 -7 7 -15 -6 -14 113 -253 142 -286 8 -8 14 -19 14 -23 0 -4 12 -32 27
-62 l26 -54 144 0 c78 0 143 2 143 4 0 9 -43 81 -60 101 -10 11 -30 43 -46 70
-15 28 -32 52 -36 53 -4 2 -8 8 -8 14 0 5 -13 28 -29 51 -33 49 -54 87 -47 87
2 0 23 -30 47 -67 23 -38 45 -70 48 -73 3 -3 14 -22 25 -42 10 -20 29 -47 42
-59 13 -12 24 -28 24 -34 0 -6 13 -32 30 -58 28 -45 32 -47 75 -47 l45 0 0
1000 0 1000 -1000 0 -1001 0 2 -130z m49 -9 c0 -5 -7 -12 -16 -15 -21 -8 -24
-8 -24 5 0 5 5 7 10 4 6 -3 10 -1 10 4 0 6 5 11 10 11 6 0 10 -4 10 -9z m310
-212 c0 -6 -4 -7 -10 -4 -5 3 -10 11 -10 16 0 6 5 7 10 4 6 -3 10 -11 10 -16z
m260 -56 c0 -28 -1 -28 -30 -3 -13 11 -18 20 -12 20 7 0 12 10 12 23 1 21 1
22 15 3 8 -11 15 -30 15 -43z m-594 -30 c-10 -10 -19 5 -10 18 6 11 8 11 12 0
2 -7 1 -15 -2 -18z m437 -249 c33 -11 62 -33 101 -74 49 -54 55 -64 61 -119 8
-68 0 -132 -22 -175 -19 -38 -87 -101 -124 -116 -16 -7 -29 -16 -29 -21 0 -5
14 -24 31 -44 17 -19 26 -35 20 -35 -18 0 -13 -18 7 -24 14 -5 19 -16 19 -44
0 -20 -2 -29 -4 -19 -6 23 -23 22 -23 -3 0 -11 -4 -20 -10 -20 -19 0 -10 38
13 53 21 14 21 16 3 23 -11 4 -21 2 -26 -6 -5 -8 -9 -9 -14 -1 -4 6 -2 11 3
11 6 0 11 12 11 26 0 21 -3 24 -13 15 -11 -8 -23 -3 -53 24 -21 19 -46 35 -55
35 -46 0 -121 34 -167 76 -120 107 -120 274 -2 392 57 58 179 78 273 46z m164
-111 c-3 -10 -5 -4 -5 12 0 17 2 24 5 18 2 -7 2 -21 0 -30z m228 -100 c-4 -10
-16 -47 -27 -83 -11 -36 -24 -69 -30 -75 -11 -11 -11 -10 22 103 12 39 26 72
32 72 6 0 7 -8 3 -17z m565 -57 l0 -74 -37 1 c-31 2 -39 7 -47 29 -14 41 7 82
39 75 21 -3 25 0 25 19 0 13 5 24 10 24 6 0 10 -31 10 -74z m290 44 c0 -27 2
-29 19 -18 27 17 51 -5 51 -47 0 -42 -24 -64 -51 -47 -11 7 -19 8 -19 2 0 -5
-4 -10 -10 -10 -6 0 -10 32 -10 75 0 43 4 75 10 75 6 0 10 -14 10 -30z m-723
4 c3 -9 2 -24 -4 -33 -7 -12 -6 -19 6 -27 13 -10 13 -16 3 -38 -10 -22 -18
-26 -57 -26 l-45 0 0 70 0 70 45 0 c33 0 47 -5 52 -16z m553 7 c-23 -6 -25
-12 -28 -69 -4 -82 -22 -80 -22 2 0 59 -2 65 -22 69 -13 2 4 4 37 5 39 0 51
-2 35 -7z m-1476 -27 c5 -14 4 -15 -9 -4 -17 14 -19 20 -6 20 5 0 12 -7 15
-16z m676 -4 c0 -7 6 -7 20 0 11 6 20 7 20 3 0 -5 -9 -14 -20 -21 -14 -8 -20
-23 -20 -47 0 -19 -4 -35 -10 -35 -5 0 -10 25 -10 55 0 30 5 55 10 55 6 0 10
-5 10 -10z m310 -1 c0 -8 4 -8 14 0 8 7 17 8 20 3 3 -6 -3 -12 -14 -15 -16 -4
-20 -14 -20 -46 0 -23 -4 -41 -10 -41 -5 0 -10 25 -10 55 0 30 5 55 10 55 6 0
10 -5 10 -11z m128 -1 c7 -7 12 -20 12 -30 0 -14 -8 -18 -36 -18 -24 0 -34 -4
-31 -12 2 -7 18 -12 36 -12 17 1 31 -2 31 -7 0 -14 -52 -23 -69 -12 -20 12
-27 69 -10 89 14 17 51 18 67 2z m109 0 c6 -7 13 -31 15 -53 l6 -41 -38 -1
c-46 -2 -70 18 -50 42 7 8 23 15 36 15 16 0 24 6 24 16 0 13 -7 15 -30 11 -16
-4 -30 -2 -30 2 0 21 53 27 67 9z m303 -34 c0 -41 2 -45 23 -42 18 2 23 10 25
46 4 60 22 52 22 -11 l0 -53 -37 -1 c-21 -1 -41 4 -45 10 -11 18 -9 97 2 97 6
0 10 -21 10 -46z m298 34 c7 -7 12 -20 12 -30 0 -14 -8 -18 -36 -18 -24 0 -34
-4 -31 -12 2 -7 16 -13 31 -13 30 1 30 -18 -1 -23 -26 -4 -53 23 -53 53 0 44
50 71 78 43z m-1451 -455 c9 -21 20 -46 25 -56 6 -13 2 -20 -15 -28 -16 -7
-22 -19 -23 -43 0 -36 -20 -62 -44 -61 -8 1 -21 -3 -29 -9 -10 -8 -12 -6 -9 9
2 11 10 19 16 18 7 -2 12 1 12 6 0 6 -12 8 -27 7 -39 -5 -40 -5 -25 -15 8 -5
12 -21 10 -40 l-3 -31 -25 23 c-14 12 -21 19 -15 15 18 -12 26 2 14 25 -6 11
-7 22 -3 26 5 3 10 11 11 16 1 6 5 19 9 29 5 14 4 17 -4 12 -12 -7 -16 5 -13
32 1 8 -6 20 -16 28 -13 10 -14 13 -4 14 8 0 25 -10 38 -22 20 -19 23 -19 23
-4 0 13 4 15 19 6 26 -13 32 -13 30 3 -10 78 19 102 48 40z m383 -50 c0 -38
34 -123 49 -123 12 0 13 -2 3 -8 -9 -7 -10 -16 -1 -43 7 -19 16 -38 20 -44 5
-5 9 -20 9 -35 0 -35 -15 -11 -35 58 -11 37 -23 56 -38 62 -17 7 -18 9 -4 9 9
1 17 2 17 4 0 1 -9 31 -20 65 -23 72 -24 86 -10 77 6 -3 10 -13 10 -22z m734
1 c3 -8 2 -12 -4 -9 -6 3 -10 10 -10 16 0 14 7 11 14 -7z m-1291 -37 c9 -4 17
-16 17 -29 -1 -22 -1 -22 -15 -4 -15 20 -15 20 -15 0 0 -14 -5 -11 -20 14 -25
41 -26 60 -2 40 9 -8 25 -18 35 -21z m-229 8 c-4 -8 -10 -12 -15 -9 -11 6 -2
24 11 24 5 0 7 -7 4 -15z m56 11 c0 -3 -4 -8 -10 -11 -5 -3 -10 -1 -10 4 0 6
5 11 10 11 6 0 10 -2 10 -4z m490 -6 c0 -15 0 -17 11 -52 6 -18 12 -55 14 -83
4 -43 3 -45 -4 -16 -5 18 -13 36 -18 40 -4 3 -8 17 -9 31 0 14 -4 40 -8 58 -5
21 -4 32 3 32 6 0 11 -4 11 -10z m1245 -10 c10 -11 16 -20 13 -20 -3 0 -13 9
-23 20 -10 11 -16 20 -13 20 3 0 13 -9 23 -20z m-240 -20 c9 -16 13 -30 11
-30 -3 0 -12 14 -21 30 -9 17 -13 30 -11 30 3 0 12 -13 21 -30z m-1515 -51 c0
-16 -4 -28 -9 -25 -8 5 -3 56 5 56 2 0 4 -14 4 -31z m1820 -23 c23 -26 23 -28
3 -15 -12 7 -27 24 -33 38 -6 15 -8 22 -3 16 5 -5 19 -23 33 -39z m-1763 22
c0 -7 4 -21 8 -30 4 -11 3 -18 -4 -18 -6 0 -11 9 -11 21 0 11 -4 18 -9 15 -5
-3 -11 1 -15 9 -3 10 1 15 13 15 10 0 18 -6 18 -12z m1533 -62 c0 -13 -46 38
-53 60 -4 11 7 3 23 -16 17 -19 30 -38 30 -44z m-1471 47 c0 -11 -3 -13 -6 -5
-2 6 -10 9 -15 6 -7 -4 -8 -2 -4 4 11 18 26 14 25 -5z m35 -8 c-4 -8 -8 -15
-10 -15 -2 0 -4 7 -4 15 0 8 4 15 10 15 5 0 7 -7 4 -15z m776 -1 c0 -2 -9 -4
-21 -4 -11 0 -18 4 -14 10 5 8 35 3 35 -6z m-824 -28 c8 -9 10 -17 5 -21 -6
-3 -15 4 -21 15 -12 23 -5 26 16 6z m1785 -63 c18 -25 27 -43 21 -39 -7 4 -26
28 -43 53 -18 25 -27 43 -21 39 7 -4 26 -28 43 -53z m-1344 -25 c-3 -7 -5 -2
-5 12 0 14 2 19 5 13 2 -7 2 -19 0 -25z m-534 -91 c-9 -16 -26 12 -18 30 7 17
8 17 15 -2 4 -11 5 -24 3 -28z"/>
<path d="M286 1304 c-62 -19 -137 -92 -154 -150 -31 -104 -5 -203 69 -267 27
-23 63 -47 81 -54 43 -15 111 -16 160 -1 54 16 132 88 153 140 21 53 22 142 2
190 -25 61 -95 124 -156 142 -66 19 -91 19 -155 0z m35 -100 c27 -15 46 -30
44 -34 -3 -4 9 -10 26 -14 17 -3 42 -15 56 -26 14 -11 31 -20 38 -20 7 0 18
-7 26 -16 10 -13 10 -17 -2 -25 -12 -7 -12 -9 1 -9 22 0 -5 -23 -70 -58 -30
-16 -77 -43 -104 -61 -28 -17 -63 -31 -78 -31 -24 0 -28 4 -29 28 -1 15 0 32
1 37 1 6 2 61 2 124 -1 63 1 118 4 123 9 14 35 9 85 -18z"/>
<path d="M291 1066 c-1 -58 1 -65 17 -59 22 8 62 33 85 52 16 13 15 16 -20 36
-21 13 -48 25 -59 29 -21 6 -22 3 -23 -58z"/>
<path d="M1354 1036 c-7 -31 1 -46 27 -46 15 0 19 7 19 35 0 28 -4 35 -20 35
-12 0 -22 -9 -26 -24z"/>
<path d="M1714 1046 c-11 -29 0 -51 26 -51 21 0 25 5 25 30 0 24 -5 31 -23 33
-13 2 -24 -3 -28 -12z"/>
<path d="M910 1075 c0 -23 4 -26 28 -23 19 2 27 9 27 23 0 14 -8 21 -27 23
-24 3 -28 0 -28 -23z"/>
<path d="M910 1010 c0 -18 5 -21 33 -18 20 2 32 8 32 18 0 10 -12 16 -32 18
-28 3 -33 0 -33 -18z"/>
<path d="M1127 1053 c-14 -13 -6 -23 18 -23 16 0 25 6 25 15 0 15 -31 21 -43
8z"/>
<path d="M1245 1010 c-3 -5 -4 -14 0 -20 8 -13 35 -1 35 16 0 16 -26 19 -35 4z"/>
<path d="M1837 1053 c-14 -13 -6 -23 18 -23 16 0 25 6 25 15 0 15 -31 21 -43
8z"/>
<path d="M341 513 c7 -12 15 -20 18 -17 3 2 -3 12 -13 22 -17 16 -18 16 -5 -5z"/>
<path d="M145 1730 c-3 -5 -4 -10 -1 -10 2 0 12 -3 20 -6 12 -5 15 -2 10 10
-7 18 -20 21 -29 6z"/>
<path d="M210 1690 c0 -5 5 -10 11 -10 5 0 7 5 4 10 -3 6 -8 10 -11 10 -2 0
-4 -4 -4 -10z"/>
<path d="M98 1633 c7 -3 16 -2 19 1 4 3 -2 6 -13 5 -11 0 -14 -3 -6 -6z"/>
<path d="M205 1560 c27 -12 43 -12 25 0 -8 5 -22 9 -30 9 -10 0 -8 -3 5 -9z"/>
<path d="M260 1560 c-17 -11 4 -22 26 -13 11 4 22 -1 31 -13 12 -16 15 -17 23
-4 13 21 12 32 -2 27 -7 -2 -25 -1 -39 3 -15 5 -32 4 -39 0z"/>
<path d="M350 1526 c0 -8 7 -16 15 -20 13 -4 14 -2 5 14 -13 23 -20 26 -20 6z"/>
<path d="M150 1500 c8 -5 20 -10 25 -10 6 0 3 5 -5 10 -8 5 -19 10 -25 10 -5
0 -3 -5 5 -10z"/>
</g>
</svg>
