<?xml version="1.0" standalone="no"?>
<!DOCTYPE svg PUBLIC "-//W3C//DTD SVG 20010904//EN"
 "http://www.w3.org/TR/2001/REC-SVG-20010904/DTD/svg10.dtd">
<svg version="1.0" xmlns="http://www.w3.org/2000/svg"
 width="900.000000pt" height="900.000000pt" viewBox="0 0 900.000000 900.000000"
 preserveAspectRatio="xMidYMid meet">
<metadata>
Created by potrace 1.11, written by Peter Selinger 2001-2013
</metadata>
<g transform="translate(0.000000,900.000000) scale(0.100000,-0.100000)"
fill="#000000" stroke="none">
<path d="M4278 8495 c-2 -1 -54 -6 -116 -9 -61 -4 -118 -8 -125 -11 -6 -2 -39
-6 -72 -9 -94 -10 -149 -16 -165 -21 -8 -3 -33 -7 -55 -10 -65 -10 -223 -44
-325 -69 -453 -114 -857 -289 -1287 -556 -58 -36 -302 -207 -313 -220 -3 -3
-39 -32 -80 -65 -41 -33 -90 -73 -109 -90 -123 -109 -158 -142 -265 -250 -321
-325 -605 -723 -799 -1120 -48 -98 -107 -225 -107 -230 0 -3 -9 -24 -19 -48
-103 -228 -241 -717 -276 -977 -3 -25 -8 -52 -10 -60 -2 -8 -7 -46 -11 -85 -3
-38 -8 -79 -10 -89 -25 -136 -25 -708 1 -911 1 -11 3 -28 4 -37 1 -17 216 -18
4356 -18 l4355 0 1 33 c0 17 2 40 4 49 24 124 24 676 0 863 -2 17 -7 57 -11
90 -8 70 -9 75 -18 140 -4 28 -9 57 -11 65 -2 8 -6 31 -9 50 -4 29 -26 135
-41 200 -2 8 -8 38 -14 65 -27 119 -130 445 -171 540 -5 11 -27 65 -50 120
-51 122 -157 340 -204 418 -19 32 -35 60 -36 62 -3 24 -215 343 -304 460 -305
399 -685 753 -1097 1021 -101 66 -122 79 -171 107 -13 6 -30 17 -38 23 -36 27
-318 168 -456 227 -148 64 -421 162 -539 193 -116 30 -250 63 -285 69 -19 3
-54 10 -76 15 -23 5 -56 12 -75 14 -19 3 -65 10 -104 16 -94 14 -129 18 -200
25 -33 3 -78 9 -100 12 -41 5 -561 13 -567 8z"/>
<path d="M306 2832 c-6 -5 75 -239 126 -367 23 -55 74 -169 114 -252 l74 -153
3873 0 3873 0 54 108 c97 195 260 607 260 657 0 9 -918 12 -4185 12 -2302 0
-4187 -2 -4189 -5z"/>
<path d="M1155 1281 c-11 -10 308 -337 445 -456 30 -26 69 -59 85 -74 17 -14
46 -38 65 -52 19 -15 46 -36 60 -48 36 -30 37 -31 119 -90 l74 -53 2488 0
c1368 0 2494 4 2501 8 15 9 146 103 168 121 158 125 271 225 396 348 149 147
274 281 274 294 0 6 -6669 9 -6675 2z"/>
</g>
</svg>
