<?xml version="1.0" standalone="no"?>
<!DOCTYPE svg PUBLIC "-//W3C//DTD SVG 20010904//EN"
 "http://www.w3.org/TR/2001/REC-SVG-20010904/DTD/svg10.dtd">
<svg version="1.0" xmlns="http://www.w3.org/2000/svg"
 width="900.000000pt" height="900.000000pt" viewBox="0 0 900.000000 900.000000"
 preserveAspectRatio="xMidYMid meet">
<metadata>
Created by potrace 1.11, written by Peter Selinger 2001-2013
</metadata>
<g transform="translate(0.000000,900.000000) scale(0.100000,-0.100000)"
fill="#000000" stroke="none">
<path d="M4288 7985 c-1 -1 -56 -6 -120 -9 -64 -4 -127 -9 -140 -11 -13 -3
-52 -8 -88 -11 -36 -3 -67 -7 -70 -9 -3 -2 -30 -6 -60 -10 -30 -4 -109 -18
-175 -31 -66 -14 -131 -27 -145 -30 -14 -3 -67 -16 -118 -30 -1085 -289 -2007
-972 -2609 -1935 -272 -434 -499 -1023 -578 -1498 -3 -19 -8 -37 -10 -40 -2
-4 -6 -33 -10 -65 -3 -33 -8 -62 -9 -65 -2 -3 -7 -40 -11 -81 -4 -41 -8 -82
-10 -90 -27 -140 -26 -784 1 -937 l6 -33 4354 0 4354 0 1 33 c0 17 2 40 4 51
23 123 24 716 1 856 -3 14 -7 52 -11 85 -3 33 -13 103 -21 155 -9 52 -17 106
-19 120 -8 56 -68 311 -96 410 -169 585 -455 1126 -838 1589 -58 69 -114 136
-126 147 -228 237 -315 320 -480 455 -411 337 -891 600 -1406 770 -136 45
-376 110 -459 124 -19 3 -54 10 -76 15 -23 5 -56 11 -75 14 -19 2 -63 9 -99
15 -95 15 -137 21 -210 27 -36 2 -78 7 -95 10 -33 6 -551 15 -557 9z"/>
<path d="M307 2323 c-16 -16 168 -486 265 -675 l50 -98 3872 0 3873 0 76 158
c98 204 219 512 233 593 l5 27 -4185 0 c-2302 0 -4187 -2 -4189 -5z"/>
<path d="M1163 760 c99 -130 411 -434 587 -571 30 -23 57 -45 60 -49 3 -3 21
-17 40 -30 19 -14 40 -28 45 -32 6 -5 31 -24 57 -43 l47 -35 2492 0 2493 0 61
42 c33 23 62 44 65 48 3 3 32 25 64 49 33 24 107 85 165 134 148 126 491 472
491 495 0 4 -1503 7 -3339 7 -2968 0 -3338 -2 -3328 -15z"/>
</g>
</svg>
